<svg xmlns="http://www.w3.org/2000/svg" viewBox="0 0 1200 1200" role="img" aria-label="Adesivo Personalizado"><defs><linearGradient id="bg" x1="0" x2="1" y2="1"><stop stop-color="#fff9f2"/><stop offset="1" stop-color="#dce8dc"/></linearGradient><filter id="s" x="-30%" y="-30%" width="160%" height="170%"><feDropShadow dx="0" dy="25" stdDeviation="24" flood-color="#5d4c45" flood-opacity=".18"/></filter></defs><rect width="1200" height="1200" rx="72" fill="url(#bg)"/><g filter="url(#s)"><rect x="254" y="250" width="692" height="618" rx="46" fill="#fffdf9" stroke="#d7b9aa" stroke-width="8" transform="rotate(-4 600 560)"/><g transform="translate(340 330)"><circle cx="130" cy="130" r="112" fill="#efd0d7" stroke="#b97d73" stroke-width="8"/><circle cx="130" cy="130" r="78" fill="#fffaf6"/><text x="130" y="120" text-anchor="middle" fill="#60443c" font-family="Georgia,serif" font-size="34" font-weight="700">Lia</text><text x="130" y="158" text-anchor="middle" fill="#88635a" font-family="Arial,sans-serif" font-size="20">5 anos</text></g><g transform="translate(610 315)"><circle cx="122" cy="122" r="104" fill="#dce7dc" stroke="#b97d73" stroke-width="8"/><path d="M60 128c31-75 94-94 140-36-31 75-94 95-140 36Z" fill="#f2c68c"/><text x="122" y="132" text-anchor="middle" fill="#60443c" font-family="Georgia,serif" font-size="31" font-weight="700">A</text></g><g transform="translate(388 610)"><circle cx="105" cy="105" r="90" fill="#f5d9ca" stroke="#b97d73" stroke-width="8"/><path d="M55 108q50-72 100 0q-50 62-100 0Z" fill="#dce7dc"/></g><g transform="translate(648 615)"><circle cx="98" cy="98" r="82" fill="#fffaf6" stroke="#b97d73" stroke-width="8"/><text x="98" y="90" text-anchor="middle" fill="#60443c" font-family="Arial,sans-serif" font-size="20" font-weight="700">FEITO</text><text x="98" y="119" text-anchor="middle" fill="#8a675e" font-family="Arial,sans-serif" font-size="18">COM AMOR</text></g></g><path d="M909 335c82 44 119 105 115 184" fill="none" stroke="#b97d73" stroke-width="11" stroke-linecap="round" stroke-dasharray="10 20" opacity=".65"/><g transform="translate(600 1038)" text-anchor="middle"><rect x="-282" y="-45" width="564" height="90" rx="45" fill="#fffaf6" opacity=".96"/><text y="-7" fill="#55362e" font-family="Arial,sans-serif" font-size="24" font-weight="700" letter-spacing="2">MERLIN • ENCANTOS EM PAPEL</text><text y="24" fill="#7e947c" font-family="Arial,sans-serif" font-size="17" letter-spacing="3">ADESIVOS • FECHAMENTO • LEMBRANCINHAS</text></g></svg>