<svg xmlns="http://www.w3.org/2000/svg" viewBox="0 0 1200 1200" role="img" aria-label="Bandeirola Personalizada"><defs><linearGradient id="bg" x1="0" y1="0" x2="1" y2="1"><stop stop-color="#f4eee8"/><stop offset="1" stop-color="#f5d5d8"/></linearGradient><filter id="shadow" x="-30%" y="-30%" width="160%" height="160%"><feDropShadow dx="0" dy="28" stdDeviation="28" flood-color="#604b43" flood-opacity=".18"/></filter></defs><rect width="1200" height="1200" rx="72" fill="url(#bg)"/><circle cx="1040" cy="180" r="150" fill="#fffdf8" opacity=".35"/><circle cx="160" cy="1040" r="180" fill="#fffdf8" opacity=".3"/><circle cx="738" cy="929" r="10" fill="#c39a55" opacity="0.29"/><circle cx="634" cy="297" r="9" fill="#c39a55" opacity="0.26"/><circle cx="1012" cy="116" r="9" fill="#c39a55" opacity="0.28"/><circle cx="793" cy="506" r="10" fill="#c39a55" opacity="0.17"/><circle cx="938" cy="884" r="15" fill="#c39a55" opacity="0.18"/><circle cx="752" cy="599" r="15" fill="#c39a55" opacity="0.31"/><circle cx="874" cy="391" r="4" fill="#c39a55" opacity="0.36"/><circle cx="932" cy="516" r="5" fill="#c39a55" opacity="0.30"/><circle cx="210" cy="869" r="6" fill="#c39a55" opacity="0.26"/><circle cx="1067" cy="543" r="8" fill="#c39a55" opacity="0.17"/><circle cx="728" cy="151" r="16" fill="#c39a55" opacity="0.26"/><circle cx="873" cy="761" r="9" fill="#c39a55" opacity="0.15"/><circle cx="538" cy="1018" r="16" fill="#c39a55" opacity="0.21"/><circle cx="565" cy="482" r="16" fill="#c39a55" opacity="0.16"/><g filter="url(#shadow)"><path d="M345 350 Q600 235 855 350 L790 760 Q600 855 410 760 Z" fill="#fffdf8" stroke="#c39a55" stroke-width="9"/><path d="M420 405 Q600 330 780 405 L740 675 Q600 745 460 675 Z" fill="#f5d5d8"/><circle cx="600" cy="520" r="95" fill="#a7b8a0"/><path d="M490 860 h220 l85 70 H405Z" fill="#a7b8a0" opacity=".9"/></g><g transform="translate(600 1040)" text-anchor="middle"><rect x="-255" y="-42" width="510" height="84" rx="42" fill="#fffdf8" opacity=".91"/><text y="-4" fill="#3c3531" font-family="Arial,Helvetica,sans-serif" font-size="24" font-weight="700" letter-spacing="2">MERLIN • ENCANTOS EM PAPEL</text><text y="25" fill="#a7b8a0" font-family="Arial,Helvetica,sans-serif" font-size="17" letter-spacing="3">MOCKUP ILUSTRATIVO</text></g></svg>