<svg xmlns="http://www.w3.org/2000/svg" viewBox="0 0 1200 1200" role="img" aria-label="Caixa Bala Personalizada"><defs><linearGradient id="bg" x1="0" y1="0" x2="1" y2="1"><stop stop-color="#f8eee7"/><stop offset="1" stop-color="#dce6d6"/></linearGradient><filter id="shadow" x="-30%" y="-30%" width="160%" height="160%"><feDropShadow dx="0" dy="28" stdDeviation="28" flood-color="#604b43" flood-opacity=".18"/></filter></defs><rect width="1200" height="1200" rx="72" fill="url(#bg)"/><circle cx="1040" cy="180" r="150" fill="#fffdf8" opacity=".35"/><circle cx="160" cy="1040" r="180" fill="#fffdf8" opacity=".3"/><circle cx="226" cy="977" r="5" fill="#c39a55" opacity="0.13"/><circle cx="198" cy="575" r="5" fill="#c39a55" opacity="0.27"/><circle cx="801" cy="864" r="8" fill="#c39a55" opacity="0.35"/><circle cx="392" cy="435" r="12" fill="#c39a55" opacity="0.22"/><circle cx="455" cy="813" r="6" fill="#c39a55" opacity="0.36"/><circle cx="347" cy="212" r="5" fill="#c39a55" opacity="0.30"/><circle cx="364" cy="823" r="4" fill="#c39a55" opacity="0.36"/><circle cx="1098" cy="99" r="13" fill="#c39a55" opacity="0.13"/><circle cx="467" cy="1037" r="13" fill="#c39a55" opacity="0.16"/><circle cx="291" cy="182" r="10" fill="#c39a55" opacity="0.32"/><circle cx="741" cy="642" r="7" fill="#c39a55" opacity="0.23"/><circle cx="1099" cy="727" r="9" fill="#c39a55" opacity="0.34"/><circle cx="1010" cy="409" r="8" fill="#c39a55" opacity="0.13"/><circle cx="322" cy="164" r="13" fill="#c39a55" opacity="0.36"/><g filter="url(#shadow)"><path d="M330 420 L600 300 L870 420 L790 850 L410 850 Z" fill="#fffdf8" stroke="#c39a55" stroke-width="9"/><path d="M330 420 L600 545 L870 420 L600 300 Z" fill="#dce6d6"/><path d="M410 850 L600 720 L790 850" fill="none" stroke="#a7b8a0" stroke-width="26" opacity=".9"/><circle cx="600" cy="590" r="90" fill="#a7b8a0" opacity=".92"/><path d="M555 590 h90 M600 545 v90" stroke="#fffdf8" stroke-width="16" stroke-linecap="round"/></g><g transform="translate(600 1040)" text-anchor="middle"><rect x="-255" y="-42" width="510" height="84" rx="42" fill="#fffdf8" opacity=".91"/><text y="-4" fill="#3c3531" font-family="Arial,Helvetica,sans-serif" font-size="24" font-weight="700" letter-spacing="2">MERLIN • ENCANTOS EM PAPEL</text><text y="25" fill="#a7b8a0" font-family="Arial,Helvetica,sans-serif" font-size="17" letter-spacing="3">MOCKUP ILUSTRATIVO</text></g></svg>