<svg xmlns="http://www.w3.org/2000/svg" viewBox="0 0 1200 1200" role="img" aria-label="Caixas personalizadas"><defs><linearGradient id="bg" x1="0" y1="0" x2="1" y2="1"><stop stop-color="#fff9f1"/><stop offset="1" stop-color="#f2d8c9"/></linearGradient><filter id="shadow" x="-30%" y="-30%" width="160%" height="160%"><feDropShadow dx="0" dy="28" stdDeviation="28" flood-color="#604b43" flood-opacity=".18"/></filter></defs><rect width="1200" height="1200" rx="72" fill="url(#bg)"/><circle cx="1040" cy="180" r="150" fill="#fffdf8" opacity=".35"/><circle cx="160" cy="1040" r="180" fill="#fffdf8" opacity=".3"/><circle cx="861" cy="611" r="15" fill="#c39a55" opacity="0.20"/><circle cx="307" cy="754" r="15" fill="#c39a55" opacity="0.19"/><circle cx="240" cy="971" r="14" fill="#c39a55" opacity="0.24"/><circle cx="901" cy="1032" r="12" fill="#c39a55" opacity="0.34"/><circle cx="1008" cy="283" r="13" fill="#c39a55" opacity="0.13"/><circle cx="502" cy="1066" r="13" fill="#c39a55" opacity="0.17"/><circle cx="1054" cy="823" r="6" fill="#c39a55" opacity="0.36"/><circle cx="723" cy="465" r="7" fill="#c39a55" opacity="0.19"/><circle cx="733" cy="333" r="8" fill="#c39a55" opacity="0.36"/><circle cx="355" cy="965" r="15" fill="#c39a55" opacity="0.34"/><circle cx="204" cy="712" r="11" fill="#c39a55" opacity="0.34"/><circle cx="109" cy="416" r="10" fill="#c39a55" opacity="0.28"/><circle cx="482" cy="975" r="6" fill="#c39a55" opacity="0.29"/><circle cx="753" cy="938" r="14" fill="#c39a55" opacity="0.23"/><g filter="url(#shadow)"><path d="M330 420 L600 300 L870 420 L790 850 L410 850 Z" fill="#fffdf8" stroke="#c39a55" stroke-width="9"/><path d="M330 420 L600 545 L870 420 L600 300 Z" fill="#f2d8c9"/><path d="M410 850 L600 720 L790 850" fill="none" stroke="#a7b8a0" stroke-width="26" opacity=".9"/><circle cx="600" cy="590" r="90" fill="#a7b8a0" opacity=".92"/><path d="M555 590 h90 M600 545 v90" stroke="#fffdf8" stroke-width="16" stroke-linecap="round"/></g><g transform="translate(600 1040)" text-anchor="middle"><rect x="-255" y="-42" width="510" height="84" rx="42" fill="#fffdf8" opacity=".91"/><text y="-4" fill="#3c3531" font-family="Arial,Helvetica,sans-serif" font-size="24" font-weight="700" letter-spacing="2">MERLIN • ENCANTOS EM PAPEL</text><text y="25" fill="#a7b8a0" font-family="Arial,Helvetica,sans-serif" font-size="17" letter-spacing="3">MOCKUP ILUSTRATIVO</text></g></svg>