<svg xmlns="http://www.w3.org/2000/svg" viewBox="0 0 1200 1200" role="img" aria-label="Mesa &amp; festa"><defs><linearGradient id="bg" x1="0" y1="0" x2="1" y2="1"><stop stop-color="#eef3eb"/><stop offset="1" stop-color="#cfe0eb"/></linearGradient><filter id="shadow" x="-30%" y="-30%" width="160%" height="160%"><feDropShadow dx="0" dy="28" stdDeviation="28" flood-color="#604b43" flood-opacity=".18"/></filter></defs><rect width="1200" height="1200" rx="72" fill="url(#bg)"/><circle cx="1040" cy="180" r="150" fill="#fffdf8" opacity=".35"/><circle cx="160" cy="1040" r="180" fill="#fffdf8" opacity=".3"/><circle cx="379" cy="211" r="6" fill="#c39a55" opacity="0.29"/><circle cx="112" cy="856" r="13" fill="#c39a55" opacity="0.20"/><circle cx="506" cy="979" r="12" fill="#c39a55" opacity="0.26"/><circle cx="957" cy="1023" r="4" fill="#c39a55" opacity="0.20"/><circle cx="919" cy="967" r="16" fill="#c39a55" opacity="0.33"/><circle cx="546" cy="728" r="13" fill="#c39a55" opacity="0.14"/><circle cx="846" cy="445" r="4" fill="#c39a55" opacity="0.14"/><circle cx="522" cy="487" r="7" fill="#c39a55" opacity="0.29"/><circle cx="313" cy="657" r="10" fill="#c39a55" opacity="0.35"/><circle cx="616" cy="693" r="6" fill="#c39a55" opacity="0.23"/><circle cx="957" cy="288" r="6" fill="#c39a55" opacity="0.15"/><circle cx="754" cy="539" r="12" fill="#c39a55" opacity="0.12"/><circle cx="994" cy="833" r="11" fill="#c39a55" opacity="0.34"/><circle cx="1108" cy="449" r="14" fill="#c39a55" opacity="0.24"/><g filter="url(#shadow)"><path d="M345 350 Q600 235 855 350 L790 760 Q600 855 410 760 Z" fill="#fffdf8" stroke="#c39a55" stroke-width="9"/><path d="M420 405 Q600 330 780 405 L740 675 Q600 745 460 675 Z" fill="#cfe0eb"/><circle cx="600" cy="520" r="95" fill="#a7b8a0"/><path d="M490 860 h220 l85 70 H405Z" fill="#a7b8a0" opacity=".9"/></g><g transform="translate(600 1040)" text-anchor="middle"><rect x="-255" y="-42" width="510" height="84" rx="42" fill="#fffdf8" opacity=".91"/><text y="-4" fill="#3c3531" font-family="Arial,Helvetica,sans-serif" font-size="24" font-weight="700" letter-spacing="2">MERLIN • ENCANTOS EM PAPEL</text><text y="25" fill="#a7b8a0" font-family="Arial,Helvetica,sans-serif" font-size="17" letter-spacing="3">MOCKUP ILUSTRATIVO</text></g></svg>