<svg xmlns="http://www.w3.org/2000/svg" viewBox="0 0 1200 1200" role="img" aria-label="Lembrancinhas"><defs><linearGradient id="bg" x1="0" x2="1" y2="1"><stop stop-color="#f7f2ec"/><stop offset="1" stop-color="#dce8dc"/></linearGradient><filter id="s" x="-30%" y="-30%" width="160%" height="170%"><feDropShadow dx="0" dy="23" stdDeviation="22" flood-color="#5b4942" flood-opacity=".18"/></filter></defs><rect width="1200" height="1200" rx="72" fill="url(#bg)"/><circle cx="980" cy="180" r="150" fill="#fffaf6" opacity=".38"/><ellipse cx="600" cy="835" rx="390" ry="70" fill="#70554c" opacity=".09"/><g filter="url(#s)"><g transform="translate(190 425)"><path d="M34 72h240v290H34Z" fill="#fffaf6" stroke="#b77c72" stroke-width="9"/><path d="M34 72l48-60h144l48 60" fill="#efd0d8" stroke="#b77c72" stroke-width="9"/><circle cx="154" cy="210" r="64" fill="#dce7dc"/><text x="154" y="222" text-anchor="middle" fill="#5c4038" font-family="Georgia,serif" font-size="38" font-weight="700">L</text></g><g transform="translate(520 300) rotate(-6)"><path d="M0 0h240l92 92v340H0Z" fill="#fffaf6" stroke="#b77c72" stroke-width="9"/><path d="M240 0v92h92" fill="#f3c98d" stroke="#b77c72" stroke-width="9"/><circle cx="168" cy="212" r="78" fill="#efd0d8"/><text x="168" y="223" text-anchor="middle" fill="#5c4038" font-family="Georgia,serif" font-size="36" font-weight="700">5</text><circle cx="258" cy="64" r="24" fill="#fffaf6" stroke="#b77c72" stroke-width="7"/></g><g transform="translate(805 485)"><path d="M0 185q95-95 190 0l-24 145H24Z" fill="#fffaf6" stroke="#b77c72" stroke-width="9"/><path d="M95 180V38" stroke="#ad8a6d" stroke-width="11" stroke-linecap="round"/><circle cx="95" cy="15" r="66" fill="#dce7dc" stroke="#b77c72" stroke-width="8"/><path d="M58 18q37-54 74 0q-37 46-74 0Z" fill="#efd0d8"/></g></g><text x="600" y="1010" text-anchor="middle" fill="#55362e" font-family="Georgia,serif" font-size="56" font-weight="700">Lembrancinhas</text><text x="600" y="1058" text-anchor="middle" fill="#7d937a" font-family="Arial,sans-serif" font-size="20" letter-spacing="4">TAGS • ADESIVOS • TOPPERS • FORMINHAS</text></svg>