<svg xmlns="http://www.w3.org/2000/svg" viewBox="0 0 1200 1200" role="img" aria-label="Kit Essencial de Festa"><defs><linearGradient id="bg" x1="0" x2="1" y2="1"><stop stop-color="#f9f4ee"/><stop offset="1" stop-color="#dce8dc"/></linearGradient><filter id="s" x="-30%" y="-30%" width="160%" height="170%"><feDropShadow dx="0" dy="24" stdDeviation="24" flood-color="#5f5049" flood-opacity=".18"/></filter></defs><rect width="1200" height="1200" rx="72" fill="url(#bg)"/><ellipse cx="600" cy="884" rx="430" ry="78" fill="#72564d" opacity=".09"/><g filter="url(#s)"><g transform="translate(496 120)"><circle cx="104" cy="110" r="92" fill="#fffaf6" stroke="#b67b70" stroke-width="9"/><circle cx="104" cy="110" r="67" fill="#efd0cb"/><text x="104" y="106" text-anchor="middle" fill="#60443c" font-family="Georgia,serif" font-size="30" font-weight="700">Theo</text><text x="104" y="140" text-anchor="middle" fill="#806057" font-family="Arial,sans-serif" font-size="20">2 anos</text><path d="M104 203v140" stroke="#b48a72" stroke-width="13" stroke-linecap="round"/></g><g transform="translate(170 450)"><path d="M42 70h220l34 60v260H8V130Z" fill="#fffaf6" stroke="#b67b70" stroke-width="9"/><path d="M42 70l50-58h120l50 58" fill="#f0d7cf" stroke="#b67b70" stroke-width="9"/><rect x="54" y="155" width="196" height="140" rx="24" fill="#dce8dc"/><circle cx="152" cy="224" r="46" fill="#e7bd7b"/><text x="152" y="232" text-anchor="middle" fill="#674940" font-family="Georgia,serif" font-size="30" font-weight="700">T</text></g><g transform="translate(488 522)"><path d="M0 30l112-28 112 28v274L112 350 0 304Z" fill="#fffaf6" stroke="#b67b70" stroke-width="9"/><path d="M0 30l112 62 112-62" fill="#f0d7cf" stroke="#b67b70" stroke-width="9"/><circle cx="112" cy="198" r="58" fill="#dce8dc"/><text x="112" y="206" text-anchor="middle" fill="#674940" font-family="Georgia,serif" font-size="27" font-weight="700">2</text></g><g transform="translate(776 514)"><path d="M20 62h214v258H20Z" fill="#fffaf6" stroke="#b67b70" stroke-width="9"/><path d="M20 62l40-50h134l40 50" fill="#dce8dc" stroke="#b67b70" stroke-width="9"/><rect x="58" y="126" width="138" height="112" rx="24" fill="#efd0cb"/><path d="M84 195q43-62 86 0q-43 52-86 0Z" fill="#fffaf6"/><text x="127" y="285" text-anchor="middle" fill="#73534a" font-family="Arial,sans-serif" font-size="20" font-weight="700">MIMO</text></g><g transform="translate(300 828)"><circle cx="0" cy="0" r="48" fill="#fffaf6" stroke="#b67b70" stroke-width="8"/><circle cx="0" cy="0" r="28" fill="#e7bd7b"/><circle cx="600" cy="0" r="48" fill="#fffaf6" stroke="#b67b70" stroke-width="8"/><circle cx="600" cy="0" r="28" fill="#efd0cb"/></g></g><g transform="translate(600 1035)" text-anchor="middle"><rect x="-292" y="-47" width="584" height="94" rx="47" fill="#fffaf6" opacity=".96"/><text y="-7" fill="#55362e" font-family="Arial,sans-serif" font-size="24" font-weight="700" letter-spacing="2">MERLIN • ENCANTOS EM PAPEL</text><text y="25" fill="#7b8f79" font-family="Arial,sans-serif" font-size="17" letter-spacing="3">KIT ESSENCIAL • BOLO + MESA + LEMBRANÇAS</text></g></svg>