<svg xmlns="http://www.w3.org/2000/svg" viewBox="0 0 1200 1200" role="img" aria-label="Kit Premium de Festa"><defs><linearGradient id="bg" x1="0" y1="0" x2="1" y2="1"><stop stop-color="#f2edf6"/><stop offset="1" stop-color="#f5d5d8"/></linearGradient><filter id="shadow" x="-30%" y="-30%" width="160%" height="160%"><feDropShadow dx="0" dy="28" stdDeviation="28" flood-color="#604b43" flood-opacity=".18"/></filter></defs><rect width="1200" height="1200" rx="72" fill="url(#bg)"/><circle cx="1040" cy="180" r="150" fill="#fffdf8" opacity=".35"/><circle cx="160" cy="1040" r="180" fill="#fffdf8" opacity=".3"/><circle cx="306" cy="1103" r="15" fill="#c39a55" opacity="0.18"/><circle cx="279" cy="962" r="10" fill="#c39a55" opacity="0.18"/><circle cx="946" cy="306" r="16" fill="#c39a55" opacity="0.24"/><circle cx="1000" cy="553" r="13" fill="#c39a55" opacity="0.20"/><circle cx="997" cy="638" r="10" fill="#c39a55" opacity="0.30"/><circle cx="300" cy="443" r="12" fill="#c39a55" opacity="0.25"/><circle cx="877" cy="366" r="12" fill="#c39a55" opacity="0.24"/><circle cx="1061" cy="157" r="8" fill="#c39a55" opacity="0.31"/><circle cx="791" cy="912" r="7" fill="#c39a55" opacity="0.32"/><circle cx="255" cy="610" r="7" fill="#c39a55" opacity="0.14"/><circle cx="565" cy="525" r="16" fill="#c39a55" opacity="0.22"/><circle cx="134" cy="939" r="11" fill="#c39a55" opacity="0.21"/><circle cx="493" cy="649" r="7" fill="#c39a55" opacity="0.36"/><circle cx="502" cy="175" r="5" fill="#c39a55" opacity="0.33"/><g filter="url(#shadow)"><rect x="245" y="565" width="250" height="300" rx="26" fill="#fffdf8" stroke="#c39a55" stroke-width="8"/><rect x="705" y="565" width="250" height="300" rx="26" fill="#fffdf8" stroke="#c39a55" stroke-width="8"/><path d="M455 520 C475 390 520 310 600 280 C680 310 725 390 745 520 Z" fill="#f5d5d8" stroke="#c39a55" stroke-width="8"/><circle cx="370" cy="685" r="66" fill="#8d6e63"/><circle cx="830" cy="685" r="66" fill="#8d6e63"/><circle cx="600" cy="425" r="78" fill="#8d6e63"/><path d="M330 805 h80 M790 805 h80 M550 505 h100" stroke="#c39a55" stroke-width="14" stroke-linecap="round"/></g><g transform="translate(600 1040)" text-anchor="middle"><rect x="-255" y="-42" width="510" height="84" rx="42" fill="#fffdf8" opacity=".91"/><text y="-4" fill="#3c3531" font-family="Arial,Helvetica,sans-serif" font-size="24" font-weight="700" letter-spacing="2">MERLIN • ENCANTOS EM PAPEL</text><text y="25" fill="#8d6e63" font-family="Arial,Helvetica,sans-serif" font-size="17" letter-spacing="3">MOCKUP ILUSTRATIVO</text></g></svg>