<svg xmlns="http://www.w3.org/2000/svg" viewBox="0 0 1200 1200" role="img" aria-label="Kit Mini Festa"><defs><linearGradient id="bg" x1="0" x2="1" y2="1"><stop stop-color="#fff9f4"/><stop offset="1" stop-color="#efd7cf"/></linearGradient><filter id="s" x="-30%" y="-30%" width="160%" height="170%"><feDropShadow dx="0" dy="24" stdDeviation="24" flood-color="#6d4f45" flood-opacity=".18"/></filter></defs><rect width="1200" height="1200" rx="72" fill="url(#bg)"/><ellipse cx="600" cy="880" rx="390" ry="70" fill="#8b675a" opacity=".09"/><g filter="url(#s)"><g transform="translate(520 190)"><circle cx="80" cy="122" r="104" fill="#fffaf6" stroke="#c7897f" stroke-width="9"/><circle cx="80" cy="122" r="77" fill="#dce7d9"/><path d="M42 142c25-58 75-75 110-28-25 59-75 76-110 28Z" fill="#f0b7b5"/><text x="80" y="116" text-anchor="middle" fill="#62443c" font-family="Georgia,serif" font-size="33" font-weight="700">Lia</text><text x="80" y="152" text-anchor="middle" fill="#8e675d" font-family="Arial,sans-serif" font-size="22">5 anos</text><path d="M80 226v178" stroke="#b48a72" stroke-width="14" stroke-linecap="round"/></g><g transform="translate(248 520)"><path d="M55 70h210l34 58v255H21V128Z" fill="#fffaf6" stroke="#b98273" stroke-width="9"/><path d="M55 70l52-58h106l52 58" fill="#f1c8c0" stroke="#b98273" stroke-width="9"/><rect x="62" y="150" width="196" height="140" rx="26" fill="#dce7d9"/><circle cx="160" cy="220" r="48" fill="#f5d7a4"/><text x="160" y="228" text-anchor="middle" fill="#6a4a41" font-family="Georgia,serif" font-size="30" font-weight="700">L</text></g><g transform="translate(700 558)"><path d="M32 74h236v270H32Z" fill="#fffaf6" stroke="#b98273" stroke-width="9"/><path d="M32 74l45-62h146l45 62" fill="#dce7d9" stroke="#b98273" stroke-width="9"/><circle cx="150" cy="184" r="64" fill="#f0b7b5"/><path d="M110 188q40-58 80 0q-40 55-80 0Z" fill="#fffaf6"/><text x="150" y="302" text-anchor="middle" fill="#735047" font-family="Arial,sans-serif" font-size="22" font-weight="700">LEMBRANÇA</text></g></g><g transform="translate(600 1034)" text-anchor="middle"><rect x="-282" y="-47" width="564" height="94" rx="47" fill="#fffaf6" opacity=".96"/><text y="-7" fill="#55362e" font-family="Arial,sans-serif" font-size="24" font-weight="700" letter-spacing="2">MERLIN • ENCANTOS EM PAPEL</text><text y="25" fill="#b06f64" font-family="Arial,sans-serif" font-size="17" letter-spacing="3">KIT MINI • REFERÊNCIA DE COMPOSIÇÃO</text></g></svg>