<svg xmlns="http://www.w3.org/2000/svg" viewBox="0 0 1200 1200" role="img" aria-label="Tag Personalizada"><defs><linearGradient id="bg" x1="0" x2="1" y2="1"><stop stop-color="#f6f1ea"/><stop offset="1" stop-color="#e6d7e8"/></linearGradient><filter id="s" x="-30%" y="-30%" width="160%" height="170%"><feDropShadow dx="0" dy="26" stdDeviation="24" flood-color="#5e4945" flood-opacity=".2"/></filter></defs><rect width="1200" height="1200" rx="72" fill="url(#bg)"/><g filter="url(#s)" transform="rotate(-7 600 560)"><path d="M340 272H710L865 427V884H340Z" fill="#fffaf6" stroke="#b87c73" stroke-width="10"/><path d="M710 272v155h155" fill="#efd0d7" stroke="#b87c73" stroke-width="10"/><circle cx="746" cy="364" r="30" fill="#f7efe8" stroke="#b87c73" stroke-width="8"/><path d="M746 334c90-82 154-47 188 12" fill="none" stroke="#8b7268" stroke-width="10" stroke-linecap="round"/><circle cx="575" cy="530" r="120" fill="#dce7dc"/><path d="M505 545c34-88 108-109 162-41-34 88-108 111-162 41Z" fill="#efb9b7"/><text x="575" y="522" text-anchor="middle" fill="#5c4038" font-family="Georgia,serif" font-size="42" font-weight="700">Laura</text><text x="575" y="570" text-anchor="middle" fill="#78574e" font-family="Arial,sans-serif" font-size="25" letter-spacing="2">OBRIGADA</text><path d="M454 724h242" stroke="#c99187" stroke-width="9" stroke-linecap="round"/><text x="575" y="778" text-anchor="middle" fill="#8e6b61" font-family="Arial,sans-serif" font-size="24">feito com carinho</text></g><g transform="translate(600 1038)" text-anchor="middle"><rect x="-282" y="-45" width="564" height="90" rx="45" fill="#fffaf6" opacity=".96"/><text y="-7" fill="#55362e" font-family="Arial,sans-serif" font-size="24" font-weight="700" letter-spacing="2">MERLIN • ENCANTOS EM PAPEL</text><text y="24" fill="#a76b7c" font-family="Arial,sans-serif" font-size="17" letter-spacing="3">TAG • FITA • ACABAMENTO PERSONALIZADO</text></g></svg>