<svg xmlns="http://www.w3.org/2000/svg" viewBox="0 0 1200 1200" role="img" aria-label="Topo Luxo com Shaker"><defs><linearGradient id="bg" x1="0" y1="0" x2="1" y2="1"><stop stop-color="#f8eee7"/><stop offset="1" stop-color="#cfe0eb"/></linearGradient><filter id="shadow" x="-30%" y="-30%" width="160%" height="160%"><feDropShadow dx="0" dy="28" stdDeviation="28" flood-color="#604b43" flood-opacity=".18"/></filter></defs><rect width="1200" height="1200" rx="72" fill="url(#bg)"/><circle cx="1040" cy="180" r="150" fill="#fffdf8" opacity=".35"/><circle cx="160" cy="1040" r="180" fill="#fffdf8" opacity=".3"/><circle cx="754" cy="174" r="14" fill="#c39a55" opacity="0.15"/><circle cx="994" cy="481" r="4" fill="#c39a55" opacity="0.26"/><circle cx="342" cy="1104" r="8" fill="#c39a55" opacity="0.21"/><circle cx="833" cy="139" r="7" fill="#c39a55" opacity="0.22"/><circle cx="234" cy="892" r="8" fill="#c39a55" opacity="0.31"/><circle cx="899" cy="435" r="4" fill="#c39a55" opacity="0.30"/><circle cx="196" cy="1089" r="4" fill="#c39a55" opacity="0.17"/><circle cx="356" cy="736" r="15" fill="#c39a55" opacity="0.30"/><circle cx="251" cy="812" r="16" fill="#c39a55" opacity="0.16"/><circle cx="658" cy="884" r="11" fill="#c39a55" opacity="0.13"/><circle cx="608" cy="743" r="14" fill="#c39a55" opacity="0.29"/><circle cx="791" cy="473" r="10" fill="#c39a55" opacity="0.26"/><circle cx="681" cy="594" r="6" fill="#c39a55" opacity="0.33"/><circle cx="813" cy="778" r="4" fill="#c39a55" opacity="0.24"/><g filter="url(#shadow)"><path d="M340 810 C365 600 420 415 600 350 C780 415 835 600 860 810 Z" fill="#fffdf8" stroke="#c39a55" stroke-width="10"/><path d="M405 720 C430 545 480 455 600 410 C720 455 770 545 795 720 Z" fill="#cfe0eb"/><circle cx="600" cy="520" r="104" fill="#c88468" opacity=".92"/><path d="M520 515 Q600 430 680 515 Q600 600 520 515Z" fill="#fffdf8" opacity=".95"/><rect x="580" y="800" width="16" height="230" rx="8" fill="#c88468"/><rect x="604" y="800" width="16" height="230" rx="8" fill="#c88468"/></g><g transform="translate(600 1040)" text-anchor="middle"><rect x="-255" y="-42" width="510" height="84" rx="42" fill="#fffdf8" opacity=".91"/><text y="-4" fill="#3c3531" font-family="Arial,Helvetica,sans-serif" font-size="24" font-weight="700" letter-spacing="2">MERLIN • ENCANTOS EM PAPEL</text><text y="25" fill="#c88468" font-family="Arial,Helvetica,sans-serif" font-size="17" letter-spacing="3">MOCKUP ILUSTRATIVO</text></g></svg>