<svg xmlns="http://www.w3.org/2000/svg" viewBox="0 0 1200 1200" role="img" aria-labelledby="title desc">
<title id="title">TOP-06 • ELITE SHAKER + ACETATO</title>
<desc id="desc">Referência visual do nível TOP-06 • ELITE SHAKER + ACETATO, com bolo neutro e topo personalizado.</desc>
<defs>
  <linearGradient id="bg" x1="0" y1="0" x2="0" y2="1"><stop offset="0" stop-color="#fffaf5"/><stop offset="1" stop-color="#ead9c9"/></linearGradient>
  <filter id="shadow" x="-30%" y="-30%" width="160%" height="160%"><feDropShadow dx="0" dy="16" stdDeviation="18" flood-color="#6d5545" flood-opacity=".18"/></filter>
</defs>
<rect width="1200" height="1200" fill="url(#bg)"/>
<circle cx="220" cy="210" r="150" fill="#fff" opacity=".38"/><circle cx="980" cy="260" r="180" fill="#fff" opacity=".28"/>
<g filter="url(#shadow)">
  <ellipse cx="600" cy="1000" rx="340" ry="46" fill="#8b6c58" opacity=".16"/>
  <rect x="315" y="690" width="570" height="300" rx="54" fill="#fffdf9" stroke="#e3d9ce" stroke-width="4"/>
  <ellipse cx="600" cy="700" rx="285" ry="62" fill="#fff" stroke="#e6ddd4" stroke-width="4"/>
  <rect x="260" y="1000" width="680" height="34" rx="17" fill="#d2aa63"/>
</g>
<g stroke="#b88a45" stroke-width="14" stroke-linecap="round"><path d="M535 690V430"/><path d="M665 690V430"/></g>

<rect x="300" y="320" width="600" height="300" rx="95" fill="#ddc9b5" stroke="#bf8c43" stroke-width="9"/>
<rect x="335" y="350" width="530" height="240" rx="82" fill="#fffaf4" stroke="#fff" stroke-width="8"/>
<rect x="410" y="415" width="380" height="115" rx="50" fill="#fff" fill-opacity=".55" stroke="#bba187" stroke-width="6"/>
<g fill="#d1a054"><circle cx="450" cy="455" r="10"/><circle cx="510" cy="500" r="9"/><circle cx="560" cy="457" r="11"/><circle cx="640" cy="500" r="10"/><circle cx="710" cy="455" r="10"/><circle cx="755" cy="495" r="9"/></g>
<g font-family="Arial, Helvetica, sans-serif"><text x="600" y="492" text-anchor="middle" font-size="50" font-weight="700" fill="#5d493d">LIA • 5</text></g>
<g stroke="#fff" stroke-opacity=".70" stroke-width="8"><path d="M600 605L260 360"/><path d="M600 605L940 370"/><path d="M600 605L245 545"/><path d="M600 605L955 535"/></g>
<g fill="#c79b50"><circle cx="260" cy="360" r="22"/><circle cx="940" cy="370" r="22"/><circle cx="245" cy="545" r="18"/><circle cx="955" cy="535" r="18"/></g>
<g fill="#e5b9bd"><circle cx="310" cy="450" r="38"/><circle cx="890" cy="455" r="38"/><circle cx="345" cy="625" r="28"/><circle cx="855" cy="625" r="28"/></g>
<g fill="#6f8d6f"><ellipse cx="285" cy="510" rx="52" ry="20"/><ellipse cx="915" cy="515" rx="52" ry="20"/></g>
<g font-family="Arial, Helvetica, sans-serif">
  <rect x="365" y="70" width="470" height="72" rx="36" fill="#fff" fill-opacity=".92" stroke="#dbc9b7" stroke-width="2"/>
  <text x="600" y="116" text-anchor="middle" font-size="30" font-weight="700" fill="#574336">TOP-06 • ELITE SHAKER + ACETATO</text>
  <text x="600" y="1125" text-anchor="middle" font-size="26" fill="#775f50">Referência visual de acabamento • tema floral neutro</text>
</g>
</svg>